<?xml version="1.0" encoding="utf-8"?>
<!-- Generator: Adobe Illustrator 23.0.2, SVG Export Plug-In . SVG Version: 6.00 Build 0)  -->
<svg version="1.1" id="レイヤー_1" xmlns="http://www.w3.org/2000/svg" xmlns:xlink="http://www.w3.org/1999/xlink" x="0px"
	 y="0px" viewBox="0 0 277.4 45" style="enable-background:new 0 0 277.4 45;" xml:space="preserve">
<style type="text/css">
	.st0{fill:#FFFFFF;}
</style>
<g>
	<path class="st0" d="M43.5,35.6V0.7h3.2v32h17.5v2.9H43.5z"/>
	<path class="st0" d="M69.7,24.2c0,5.2,2.4,9.6,8.4,9.6c3.4-0.1,6.3-2.4,6.9-5.8h3.1c-0.9,5.3-5.7,8.9-11,8.5
		c-7.3,0-10.7-6.3-10.7-12.9S70,10.6,77.3,10.6c8.2,0,11.2,5.9,11.2,13.5H69.7L69.7,24.2z M85.3,21.5c-0.3-4.7-2.9-8.3-7.9-8.3
		c-5.1,0-7.3,4-7.6,8.3H85.3z"/>
	<path class="st0" d="M111.3,11.3h3c0,1.7-0.2,3.6-0.2,5.5v14.6c0,4.8,0.2,9.9-5.2,12.4c-1.8,0.9-3.6,1.2-5.5,1.1
		c-4.5,0-9.6-1.5-9.6-6.5H97c0.3,2.9,3.7,3.9,6.8,3.9c3.9,0.1,7.2-2.9,7.4-6.7v-4.5c-1.7,2.9-4.6,4.5-7.9,4.5
		c-7.3,0-10.5-5.6-10.5-12.2c0-6.6,3-12.7,10.4-12.7c3.3,0,6.3,1.7,8,4.5V15L111.3,11.3L111.3,11.3z M103.4,13.1
		c-5.3,0-7.5,5.3-7.5,9.8c0,4.5,2.2,9.8,7.6,9.8c5.4,0,7.7-5.2,7.7-9.9c0-4.7-2.6-9.6-7.8-9.6L103.4,13.1L103.4,13.1z"/>
	<path class="st0" d="M134.6,18.5c-0.3-4-2.2-5.3-5.7-5.3c-3.1,0-5.6,0.9-5.9,4.2h-3.1c0.8-5,4.5-6.8,9.1-6.8c5.4,0,8.7,2.4,8.6,8
		v11.6c0,1.9,0.1,3.9,0.2,5.5h-3v-3.6l-0.1,0.3c-1.8,2.5-4.5,4-7.6,4c-4.1,0.3-7.8-2.6-8.1-6.8c-0.3-3.4,1.8-6.6,5-7.7
		c3.2-1.4,7.5-0.9,11-1.1L134.6,18.5z M127.3,33.6c6.3,0,7.5-5.3,7.3-10.4c-4.1,0.1-12.8-0.7-12.8,5.5c0,2.6,2.2,4.8,4.8,4.8
		L127.3,33.6L127.3,33.6z"/>
	<path class="st0" d="M147.5,35.6h-2.9V0.7h2.9V35.6z"/>
	<path class="st0" d="M160.2,24.5c-0.6,3.1,1.5,6.1,4.6,6.6c0.6,0.1,1.1,0.1,1.8,0c4.1,0,6.7-1.9,6.7-4.8c0-3-2.2-3.6-6.7-4.7
		c-8.4-2.1-12.9-4.5-12.9-10.6c0-6.1,4.1-10.9,13.9-10.9c4-0.3,7.8,1.2,10.6,4.1c1.4,1.9,2.1,4.2,2,6.5h-7.3
		c0.1-2.9-2.2-5.3-5.1-5.4h-0.7c-3.5,0-5.7,1.9-5.7,4.7c0,3.2,2.5,3.9,7.6,5.1c6.1,1.4,12,3.1,12,9.9c0,6.3-5.3,11.3-14.9,11.3
		c-13.4,0-13.4-8.6-13.5-12L160.2,24.5L160.2,24.5z"/>
	<path class="st0" d="M186.1,0.7h7.6V7h-7.6V0.7z M186.3,11.3h7.2v24.3h-7.2V11.3z"/>
	<path class="st0" d="M200.3,16.3h-3.6v-5.1h3.6V7.9c0-4.3,1.4-7.8,8.4-7.8c1.3,0,2.5,0.1,3.9,0.2v5c-0.4-0.1-1-0.1-1.5-0.1
		c-3.6,0-3.6,1.9-3.6,3.2v2.9h4.5v5.1h-4.5v19.4h-7.1L200.3,16.3L200.3,16.3z"/>
	<path class="st0" d="M232.1,35.3c-1.8,0.5-3.6,0.8-5.6,0.8c-7.2,0-7.2-4.5-7.2-6.6V16.1h-4.7v-4.8h4.6V6.5l7.2-2.6v7.3h5.8V16h-5.8
		v11c0,2.2,0,3.6,3.2,3.6c0.8,0,1.7,0,2.4-0.1L232.1,35.3z"/>
	<path class="st0" d="M241.4,25.3c0,1.5,0,6.5,5,6.5c2.1,0.1,4-1.3,4.3-3.4h6.5c-0.1,2-0.9,3.9-2.2,5.3c-2.3,2.1-5.4,3.1-8.6,2.9
		c-3.2,0.1-6.3-1-8.6-3.1c-2.2-2.6-3.4-6.1-3.2-9.6c-0.3-4.5,1.5-8.8,5.1-11.6c2-1.3,4.4-2.1,6.8-2c4.2-0.2,8,2.2,9.9,5.9
		c1.2,2.9,1.8,5.8,1.4,8.9L241.4,25.3z M250.4,20.7c0-1.1,0-5.5-4.3-5.5c-3.2,0-4.5,2.6-4.6,5.5H250.4L250.4,20.7z"/>
	<path class="st0" d="M262.5,17.2c0-1.2-0.2-4.7-0.3-6.1h6.7l0.1,4.7c0.9-2.1,2.5-5.1,8.4-4.7v6.5c-7.3-0.7-7.7,3.1-7.7,6.1v12h-7.2
		V17.2L262.5,17.2z"/>
	<path class="st0" d="M36.8,18.4c0,10.1-8.3,18.4-18.4,18.4C8.2,36.8,0,28.7,0,18.4C0,8.3,8.2,0,18.4,0C28.5,0,36.8,8.3,36.8,18.4z
		 M22.1,23.5h5.4c0.4,1.2,1.7,1.8,2.9,1.3c1.2-0.4,1.8-1.7,1.3-2.9c-0.4-1.2-1.7-1.8-2.9-1.3c-0.7,0.2-1.1,0.8-1.3,1.3h-6.1
		l-5.4,6.3c-1.1-0.4-2.4,0.1-2.9,1.3c-0.4,1.1,0.1,2.4,1.3,2.9c1.1,0.4,2.4-0.1,2.9-1.3c0.2-0.7,0.2-1.3-0.1-1.9
		C17.3,29.2,22.1,23.5,22.1,23.5z M20.2,17.4l-8.6-10c0.6-1.1,0.1-2.4-1-3s-2.4-0.1-3,1s-0.1,2.4,1,3c0.6,0.3,1.3,0.3,1.9,0l7.7,8.9
		L9.6,27.6c-1.2-0.4-2.4,0.2-2.9,1.3c-0.4,1.2,0.2,2.4,1.3,2.9c1.2,0.4,2.4-0.2,2.9-1.3c0.2-0.7,0.1-1.3-0.2-1.9L20.2,17.4z
		 M13.4,17.4l-5.5-6.4c0.3-0.8-0.1-1.5-0.8-1.9C6.4,9,5.6,9.3,5.3,10.1c-0.3,0.8,0.1,1.5,0.8,1.9C6.3,12,6.5,12,6.7,12l4.7,5.5
		L5.1,25c-0.8-0.1-1.5,0.4-1.7,1.2c-0.1,0.8,0.4,1.5,1.2,1.7c0.8,0.1,1.5-0.4,1.7-1.2V26L13.4,17.4z M31.2,16.7h-4.5l-6.4-7.4
		c0.6-1.1,0.2-2.4-0.9-3.1c-1.1-0.6-2.4-0.2-3.1,0.9c-0.7,1.1,0,2.6,1,3.2c0.6,0.3,1.3,0.3,1.9,0.1l6.7,7.8H31
		c0.4,1.2,1.7,1.8,2.9,1.3c1.2-0.4,1.8-1.7,1.3-2.9s-1.7-1.8-2.9-1.3C31.9,15.6,31.4,16.1,31.2,16.7"/>
</g>
</svg>
