<svg preserveAspectRatio="xMidYMid meet" data-bbox="0.2 -0.04 251.9 40.859" viewBox="0.20000000298023224 -0.040056224912405014 251.9000244140625 40.858612060546875" xmlns="http://www.w3.org/2000/svg" data-type="color" role="img" style="">
    <g>
        <path d="M39.7 32.3V.6h2.9v29.1h15.9v2.6H39.7z" fill="#ffffff" data-color="1"></path>
        <path d="M63.5 21.9c0 4.7 2.2 8.7 7.6 8.7 3.1-.1 5.7-2.2 6.3-5.3h2.8c-.8 4.8-5.2 8.1-10 7.7-6.6 0-9.7-5.7-9.7-11.7s3.3-11.7 9.9-11.7c7.4 0 10.2 5.4 10.2 12.3H63.5zm14.2-2.4c-.3-4.3-2.6-7.5-7.2-7.5s-6.6 3.6-6.9 7.5h14.1z" fill="#ffffff" data-color="1"></path>
        <path d="M101.3 10.2h2.7c0 1.5-.2 3.3-.2 5v13.3c0 4.4.2 9-4.7 11.3-1.6.8-3.3 1.1-5 1-4.1 0-8.7-1.4-8.7-5.9h2.9c.3 2.6 3.4 3.5 6.2 3.5 3.5.1 6.5-2.6 6.7-6.1v-4.1c-1.5 2.6-4.2 4.1-7.2 4.1-6.6 0-9.5-5.1-9.5-11.1s2.7-11.5 9.4-11.5c3 0 5.7 1.5 7.3 4.1v-.2l.1-3.4zm-7.2 1.7c-4.8 0-6.8 4.8-6.8 8.9s2 8.9 6.9 8.9 7-4.7 7-9-2.4-8.7-7.1-8.7v-.1z" fill="#ffffff" data-color="1"></path>
        <path d="M122.4 16.8c-.3-3.6-2-4.8-5.2-4.8-2.8 0-5.1.8-5.4 3.8H109c.7-4.5 4.1-6.2 8.3-6.2 4.9 0 7.9 2.2 7.8 7.3v10.5c0 1.7.1 3.5.2 5h-2.7v-3.3l-.1.3c-1.6 2.3-4.1 3.6-6.9 3.6-3.7.3-7.1-2.4-7.4-6.2-.3-3.1 1.6-6 4.5-7 2.9-1.3 6.8-.8 10-1l-.3-2zm-6.6 13.7c5.7 0 6.8-4.8 6.6-9.4-3.7.1-11.6-.6-11.6 5 0 2.4 2 4.4 4.4 4.4h.6z" fill="#ffffff" data-color="1"></path>
        <path d="M134.1 32.3h-2.6V.6h2.6v31.7z" fill="#ffffff" data-color="1"></path>
        <path d="M145.7 22.2c-.5 2.8 1.4 5.5 4.2 6 .5.1 1 .1 1.6 0 3.7 0 6.1-1.7 6.1-4.4s-2-3.3-6.1-4.3c-7.6-1.9-11.7-4.1-11.7-9.6S143.5 0 152.4 0c3.6-.3 7.1 1.1 9.6 3.7 1.3 1.7 1.9 3.8 1.8 5.9h-6.6c.1-2.6-2-4.8-4.6-4.9h-.6c-3.2 0-5.2 1.7-5.2 4.3 0 2.9 2.3 3.5 6.9 4.6 5.5 1.3 10.9 2.8 10.9 9 0 5.7-4.8 10.3-13.5 10.3-12.2 0-12.2-7.8-12.3-10.9l6.9.2z" fill="#ffffff" data-color="1"></path>
        <path d="M169.2.6h6.9v5.7h-6.9V.6zm.2 9.6h6.5v22.1h-6.5V10.2z" fill="#ffffff" data-color="1"></path>
        <path d="M182.1 14.8h-3.3v-4.6h3.3V7.1c0-3.9 1.3-7.1 7.6-7.1 1.2 0 2.3.1 3.5.2v4.5c-.4-.1-.9-.1-1.4-.1-3.3 0-3.3 1.7-3.3 2.9v2.6h4.1v4.6h-4.1v17.6h-6.4V14.8z" fill="#ffffff" data-color="1"></path>
        <path d="M211 32c-1.6.5-3.3.7-5.1.7-6.5 0-6.5-4.1-6.5-6V14.6h-4.3v-4.4h4.2V5.9l6.5-2.4v6.6h5.3v4.4h-5.3v10c0 2 0 3.3 2.9 3.3.7 0 1.5 0 2.2-.1l.1 4.3z" fill="#ffffff" data-color="1"></path>
        <path d="M219.4 22.9c0 1.4 0 5.9 4.5 5.9 1.9.1 3.6-1.2 3.9-3.1h5.9c-.1 1.8-.8 3.5-2 4.8-2.1 1.9-4.9 2.8-7.8 2.6-2.9.1-5.7-.9-7.8-2.8-2-2.4-3.1-5.5-2.9-8.7-.3-4.1 1.4-8 4.6-10.5 1.8-1.2 4-1.9 6.2-1.8 3.8-.2 7.3 2 9 5.4 1.1 2.6 1.6 5.3 1.3 8.1l-14.9.1zm8.2-4.1c0-1 0-5-3.9-5-2.9 0-4.1 2.4-4.2 5h8.1z" fill="#ffffff" data-color="1"></path>
        <path d="M238.6 15.6c0-1.1-.2-4.3-.3-5.5h6.1l.1 4.3c.8-1.9 2.3-4.6 7.6-4.3V16c-6.6-.6-7 2.8-7 5.5v10.9h-6.5V15.6z" fill="#ffffff" data-color="1"></path>
        <path d="M33.6 16.7c0 9.2-7.5 16.7-16.7 16.7S.2 26 .2 16.7C.2 7.5 7.7 0 16.9 0s16.7 7.5 16.7 16.7zm-13.3 4.6h4.9c.4 1.1 1.5 1.6 2.6 1.2s1.6-1.5 1.2-2.6-1.5-1.6-2.6-1.2c-.6.2-1 .7-1.2 1.2h-5.5l-4.9 5.7c-1-.4-2.2.1-2.6 1.2-.4 1 .1 2.2 1.2 2.6 1 .4 2.2-.1 2.6-1.2.2-.6.2-1.2-.1-1.7l4.4-5.2zm-1.7-5.5l-7.8-9.1c.5-1 .1-2.2-.9-2.7s-2.2-.1-2.7.9-.1 2.2.9 2.7c.5.3 1.2.3 1.7 0l7 8.1L8.9 25c-1.1-.4-2.2.2-2.6 1.2-.4 1.1.2 2.2 1.2 2.6 1.1.4 2.2-.2 2.6-1.2.2-.6.1-1.2-.2-1.7l8.7-10.1zm-6.2 0l-5-5.8c.3-.7-.1-1.4-.7-1.7-.7-.2-1.4.1-1.7.8-.3.7.1 1.4.7 1.7.2.1.4.1.6.1l4.3 5-5.8 6.8c-.7-.1-1.4.4-1.5 1.1s.4 1.4 1.1 1.5 1.4-.4 1.5-1.1v-.6l6.5-7.8zm16.1-.7h-4.1l-5.8-6.7c.5-1 .2-2.2-.8-2.8-1-.5-2.2-.2-2.8.8s0 2.4.9 2.9c.5.3 1.2.3 1.7.1l6.1 7.1h4.7c.4 1.1 1.5 1.6 2.6 1.2s1.6-1.5 1.2-2.6c-.4-1.1-1.5-1.6-2.6-1.2-.4.2-.9.7-1.1 1.2" fill="#ffffff" data-color="1"></path>
    </g>
</svg>