<?xml version="1.0" encoding="utf-8"?>
<!-- Generator: Adobe Illustrator 16.0.0, SVG Export Plug-In . SVG Version: 6.00 Build 0)  -->
<!DOCTYPE svg PUBLIC "-//W3C//DTD SVG 1.1//EN" "http://www.w3.org/Graphics/SVG/1.1/DTD/svg11.dtd">
<svg version="1.1" id="レイヤー_1" xmlns="http://www.w3.org/2000/svg" xmlns:xlink="http://www.w3.org/1999/xlink" x="0px"
	 y="0px" width="197.285px" height="32px" viewBox="276.558 143.96 197.285 32" enable-background="new 276.558 143.96 197.285 32"
	 xml:space="preserve">
<g>
	<path fill="#595194" d="M307.493,169.288v-24.827h2.271v22.791h12.453v2.036H307.493z"/>
	<path fill="#595194" d="M326.133,161.145c0,3.681,1.723,6.812,5.952,6.812c2.428-0.078,4.464-1.725,4.934-4.15h2.193
		c-0.626,3.76-4.072,6.344-7.832,6.03c-5.169,0-7.597-4.465-7.597-9.164c0-4.699,2.584-9.163,7.753-9.163
		c5.796,0,7.989,4.229,7.989,9.635H326.133L326.133,161.145z M337.254,159.264c-0.235-3.368-2.036-5.874-5.639-5.874
		c-3.603,0-5.169,2.819-5.404,5.874H337.254z"/>
	<path fill="#595194" d="M355.738,151.979h2.115c0,1.175-0.157,2.585-0.157,3.917v10.417c0,3.445,0.157,7.049-3.681,8.851
		c-1.253,0.627-2.584,0.86-3.916,0.783c-3.211,0-6.814-1.097-6.814-4.621h2.271c0.235,2.036,2.663,2.741,4.855,2.741
		c2.741,0.078,5.091-2.036,5.248-4.777v-3.211c-1.175,2.036-3.29,3.211-5.639,3.211c-5.169,0-7.44-3.994-7.44-8.693
		c0-4.699,2.115-9.007,7.362-9.007c2.35,0,4.464,1.175,5.717,3.211v-0.157L355.738,151.979L355.738,151.979z M350.099,153.311
		c-3.759,0-5.326,3.759-5.326,6.971c0,3.212,1.566,6.97,5.404,6.97c3.838,0,5.482-3.682,5.482-7.049c0-3.368-1.88-6.813-5.561-6.813
		L350.099,153.311L350.099,153.311z"/>
	<path fill="#595194" d="M372.263,157.149c-0.235-2.82-1.566-3.759-4.073-3.759c-2.193,0-3.994,0.626-4.229,2.976h-2.193
		c0.548-3.524,3.211-4.856,6.5-4.856c3.837,0,6.187,1.723,6.109,5.717v8.224c0,1.331,0.078,2.74,0.157,3.915h-2.115v-2.584
		l-0.079,0.233c-1.253,1.803-3.211,2.82-5.404,2.82c-2.898,0.234-5.561-1.88-5.795-4.855c-0.235-2.429,1.253-4.7,3.524-5.482
		c2.271-1.018,5.326-0.626,7.832-0.783L372.263,157.149z M367.094,167.879c4.464,0,5.326-3.76,5.169-7.361
		c-2.898,0.078-9.085-0.471-9.085,3.916c0,1.879,1.566,3.445,3.446,3.445H367.094z"/>
	<path fill="#595194" d="M381.427,169.288h-2.036v-24.827h2.036V169.288z"/>
	<path fill="#595194" d="M390.512,161.378c-0.392,2.192,1.098,4.308,3.289,4.699c0.393,0.078,0.783,0.078,1.254,0
		c2.897,0,4.776-1.331,4.776-3.446c0-2.113-1.566-2.584-4.776-3.367c-5.953-1.488-9.164-3.211-9.164-7.519
		c0-4.307,2.897-7.753,9.868-7.753c2.819-0.235,5.562,0.862,7.52,2.898c1.019,1.332,1.487,2.976,1.41,4.621h-5.17
		c0.078-2.036-1.565-3.759-3.604-3.837h-0.47c-2.506,0-4.072,1.331-4.072,3.368c0,2.271,1.801,2.741,5.404,3.603
		c4.307,1.018,8.536,2.193,8.536,7.048c0,4.465-3.76,8.066-10.573,8.066c-9.555,0-9.555-6.107-9.633-8.535L390.512,161.378
		L390.512,161.378z"/>
	<path fill="#595194" d="M408.916,144.461h5.404v4.464h-5.404V144.461z M409.073,151.979h5.091v17.309h-5.091V151.979z"/>
	<path fill="#595194" d="M419.02,155.583h-2.584v-3.603h2.584v-2.428c0-3.054,1.02-5.561,5.952-5.561
		c0.939,0,1.803,0.078,2.741,0.157v3.524c-0.312-0.079-0.705-0.079-1.097-0.079c-2.584,0-2.584,1.332-2.584,2.271v2.036h3.211v3.603
		h-3.211v13.784h-5.014L419.02,155.583L419.02,155.583z"/>
	<path fill="#595194" d="M441.653,169.055c-1.253,0.391-2.584,0.547-3.994,0.547c-5.091,0-5.091-3.211-5.091-4.699v-9.477h-3.367
		v-3.446h3.289v-3.368l5.091-1.879v5.169h4.151v3.446h-4.151v7.832c0,1.566,0,2.584,2.271,2.584c0.549,0,1.176,0,1.724-0.078
		L441.653,169.055z"/>
	<path fill="#595194" d="M448.232,161.927c0,1.097,0,4.62,3.523,4.62c1.488,0.078,2.819-0.939,3.055-2.428h4.62
		c-0.078,1.41-0.626,2.74-1.564,3.76c-1.646,1.487-3.838,2.191-6.109,2.036c-2.271,0.078-4.464-0.705-6.107-2.192
		c-1.566-1.881-2.43-4.309-2.271-6.813c-0.235-3.211,1.097-6.266,3.603-8.224c1.41-0.94,3.134-1.488,4.855-1.41
		c2.977-0.157,5.718,1.566,7.049,4.229c0.861,2.037,1.253,4.151,1.02,6.344L448.232,161.927z M454.654,158.715
		c0-0.783,0-3.916-3.055-3.916c-2.271,0-3.211,1.879-3.29,3.916H454.654L454.654,158.715z"/>
	<path fill="#595194" d="M463.27,156.209c0-0.861-0.155-3.368-0.233-4.308h4.776l0.078,3.368c0.627-1.488,1.802-3.603,5.952-3.368
		v4.621c-5.169-0.47-5.481,2.193-5.481,4.308v8.536h-5.092V156.209L463.27,156.209z"/>
	<path fill="#595194" d="M302.716,157.07c0,7.206-5.874,13.079-13.079,13.079c-7.205,0-13.079-5.795-13.079-13.079
		c0-7.205,5.874-13.079,13.079-13.079C296.842,143.991,302.716,149.865,302.716,157.07z M292.3,160.673h3.837
		c0.313,0.862,1.175,1.254,2.036,0.94c0.862-0.313,1.253-1.175,0.94-2.037c-0.313-0.862-1.175-1.253-2.036-0.94
		c-0.47,0.157-0.783,0.548-0.94,0.94h-4.308l-3.837,4.464c-0.783-0.313-1.723,0.078-2.037,0.938
		c-0.313,0.783,0.079,1.725,0.94,2.037c0.783,0.312,1.723-0.078,2.037-0.939c0.156-0.471,0.156-0.939-0.079-1.331
		C288.854,164.746,292.299,160.673,292.3,160.673z M290.968,156.366l-6.109-7.127c0.392-0.783,0.078-1.723-0.705-2.115
		c-0.783-0.392-1.723-0.078-2.115,0.705c-0.392,0.783-0.078,1.723,0.705,2.114c0.392,0.235,0.94,0.235,1.332,0l5.482,6.344
		l-6.188,7.283c-0.861-0.312-1.723,0.156-2.036,0.939c-0.313,0.861,0.157,1.723,0.94,2.036c0.861,0.313,1.723-0.155,2.036-0.938
		c0.157-0.471,0.078-0.94-0.157-1.332L290.968,156.366z M286.112,156.366l-3.916-4.542c0.235-0.548-0.078-1.097-0.548-1.332
		c-0.548-0.157-1.096,0.079-1.331,0.626c-0.235,0.548,0.078,1.097,0.548,1.332c0.156,0.078,0.313,0.078,0.47,0.078l3.368,3.916
		l-4.542,5.326c-0.548-0.078-1.097,0.313-1.175,0.861c-0.078,0.549,0.313,1.098,0.861,1.176c0.548,0.078,1.097-0.312,1.175-0.861
		v-0.471L286.112,156.366z M298.722,155.817h-3.211l-4.542-5.247c0.392-0.783,0.157-1.723-0.626-2.193
		c-0.783-0.392-1.723-0.156-2.193,0.626c-0.47,0.784,0,1.88,0.705,2.271c0.392,0.235,0.94,0.235,1.332,0.078l4.777,5.561h3.681
		c0.313,0.861,1.175,1.253,2.036,0.939c0.861-0.313,1.253-1.175,0.94-2.036s-1.175-1.253-2.037-0.94
		C299.27,155.034,298.878,155.426,298.722,155.817"/>
</g>
</svg>
