<?xml version="1.0" encoding="utf-8"?>
<!-- Generator: Adobe Illustrator 16.0.0, SVG Export Plug-In . SVG Version: 6.00 Build 0)  -->
<!DOCTYPE svg PUBLIC "-//W3C//DTD SVG 1.1//EN" "http://www.w3.org/Graphics/SVG/1.1/DTD/svg11.dtd">
<svg version="1.1" id="レイヤー_1" xmlns="http://www.w3.org/2000/svg" xmlns:xlink="http://www.w3.org/1999/xlink" x="0px"
	 y="0px" width="750px" height="320px" viewBox="0 0 750 320" enable-background="new 0 0 750 320" xml:space="preserve">
<g>
	<path fill="#595194" d="M117.806,195.423V101.04h8.634v86.642h47.34v7.741H117.806z"/>
	<path fill="#595194" d="M188.667,164.458c0,13.993,6.55,25.903,22.628,25.903c9.23-0.298,16.971-6.551,18.758-15.78h8.336
		c-2.382,14.292-15.482,24.116-29.773,22.926c-19.651,0-28.881-16.972-28.881-34.835c0-17.865,9.826-34.835,29.476-34.835
		c22.033,0,30.369,16.078,30.369,36.622H188.667z M230.946,157.312c-0.893-12.803-7.741-22.331-21.437-22.331
		s-19.651,10.719-20.544,22.331H230.946z"/>
	<path fill="#595194" d="M301.212,129.623h8.039c0,4.466-0.595,9.826-0.595,14.887v39.599c0,13.101,0.595,26.796-13.994,33.645
		c-4.764,2.382-9.825,3.274-14.887,2.978c-12.208,0-25.903-4.168-25.903-17.566h8.634c0.894,7.74,10.123,10.42,18.46,10.42
		c10.42,0.299,19.353-7.74,19.948-18.161v-12.208c-4.466,7.742-12.505,12.208-21.437,12.208c-19.651,0-28.285-15.185-28.285-33.049
		s8.039-34.24,27.987-34.24c8.932,0,16.971,4.466,21.735,12.208v-0.596L301.212,129.623L301.212,129.623z M279.775,134.684
		c-14.292,0-20.246,14.292-20.246,26.499c0,12.208,5.955,26.499,20.543,26.499c14.589,0,20.842-13.994,20.842-26.797
		c0-12.802-7.146-25.903-21.139-25.903V134.684z"/>
	<path fill="#595194" d="M364.035,149.273c-0.893-10.719-5.955-14.292-15.482-14.292c-8.337,0-15.185,2.382-16.078,11.314h-8.336
		c2.084-13.398,12.207-18.459,24.712-18.459c14.589,0,23.521,6.55,23.224,21.735v31.263c0,5.061,0.298,10.42,0.596,14.887h-8.039
		v-9.826l-0.298,0.894c-4.764,6.849-12.207,10.719-20.544,10.719c-11.016,0.894-21.139-7.146-22.032-18.46
		c-0.894-9.229,4.764-17.864,13.398-20.841c8.634-3.871,20.246-2.382,29.774-2.978L364.035,149.273z M344.384,190.063
		c16.971,0,20.246-14.292,19.65-27.987c-11.016,0.298-34.538-1.787-34.538,14.887c0,7.146,5.955,13.101,13.101,13.101H344.384z"/>
	<path fill="#595194" d="M398.87,195.423h-7.741V101.04h7.741V195.423z"/>
	<path fill="#595194" d="M433.407,165.352c-1.488,8.336,4.169,16.375,12.505,17.863c1.489,0.299,2.978,0.299,4.765,0
		c11.016,0,18.161-5.061,18.161-13.1s-5.954-9.826-18.161-12.803c-22.629-5.657-34.836-12.208-34.836-28.583
		s11.017-29.476,37.515-29.476c10.719-0.893,21.14,3.275,28.583,11.017c3.871,5.062,5.657,11.314,5.359,17.566h-19.65
		c0.298-7.741-5.955-14.292-13.696-14.589h-1.786c-9.527,0-15.482,5.062-15.482,12.803c0,8.634,6.848,10.421,20.544,13.696
		c16.375,3.871,32.453,8.337,32.453,26.796c0,16.972-14.291,30.667-40.194,30.667c-36.324,0-36.324-23.224-36.622-32.453
		L433.407,165.352L433.407,165.352z"/>
	<path fill="#595194" d="M503.376,101.04h20.544v16.971h-20.544V101.04z M503.972,129.623h19.353v65.8h-19.353V129.623z"/>
	<path fill="#595194" d="M541.784,143.319h-9.825v-13.696h9.825v-9.229c0-11.612,3.87-21.14,22.628-21.14
		c3.572,0,6.848,0.298,10.421,0.596v13.398c-1.191-0.298-2.68-0.298-4.169-0.298c-9.825,0-9.825,5.062-9.825,8.635v7.741h12.208
		v13.696h-12.208v52.402h-19.055V143.319L541.784,143.319z"/>
	<path fill="#595194" d="M627.83,194.529c-4.764,1.488-9.825,2.084-15.185,2.084c-19.353,0-19.353-12.207-19.353-17.863v-36.027
		H580.49v-13.101h12.505V116.82l19.353-7.146v19.651h15.78v13.1h-15.78v29.774c0,5.955,0,9.825,8.635,9.825
		c2.084,0,4.466,0,6.55-0.298L627.83,194.529z"/>
	<path fill="#595194" d="M652.84,167.436c0,4.168,0,17.566,13.398,17.566c5.656,0.298,10.719-3.572,11.611-9.23h17.566
		c-0.298,5.359-2.382,10.422-5.954,14.292c-6.253,5.657-14.59,8.337-23.224,7.741c-8.635,0.297-16.972-2.68-23.224-8.337
		c-5.955-7.146-9.23-16.376-8.635-25.903c-0.893-12.207,4.169-23.819,13.696-31.262c5.359-3.573,11.909-5.657,18.46-5.359
		c11.313-0.595,21.734,5.955,26.796,16.078c3.275,7.741,4.764,15.78,3.871,24.117L652.84,167.436z M677.254,155.228
		c0-2.977,0-14.887-11.611-14.887c-8.635,0-12.207,7.146-12.505,14.887H677.254L677.254,155.228z"/>
	<path fill="#595194" d="M710.006,145.701c0-3.275-0.596-12.803-0.894-16.375h18.162l0.298,12.803
		c2.382-5.657,6.848-13.696,22.628-12.803v17.566c-19.65-1.787-20.842,8.336-20.842,16.376v32.453h-19.353V145.701L710.006,145.701z
		"/>
	<path fill="#595194" d="M99.644,148.976c0,27.392-22.33,49.722-49.722,49.722c-27.392,0-49.722-22.032-49.722-49.722
		c0-27.392,22.33-49.722,49.722-49.722C77.314,99.253,99.644,121.584,99.644,148.976z M60.045,162.672h14.589
		c1.191,3.275,4.466,4.764,7.741,3.572c3.275-1.19,4.764-4.466,3.573-7.741c-1.191-3.275-4.466-4.764-7.741-3.573
		c-1.786,0.596-2.977,2.084-3.573,3.573H58.259l-14.589,16.971c-2.977-1.191-6.55,0.297-7.741,3.572
		c-1.191,2.978,0.298,6.551,3.573,7.741c2.977,1.19,6.55-0.298,7.741-3.573c0.595-1.785,0.595-3.572-0.298-5.061
		C46.945,178.154,60.045,162.672,60.045,162.672z M54.983,146.296L31.76,119.202c1.489-2.978,0.298-6.55-2.68-8.039
		s-6.55-0.298-8.039,2.68c-1.489,2.977-0.298,6.55,2.68,8.039c1.489,0.894,3.573,0.894,5.062,0l20.842,24.117l-23.521,27.689
		c-3.275-1.19-6.55,0.596-7.741,3.573c-1.191,3.274,0.596,6.55,3.573,7.741c3.275,1.191,6.55-0.596,7.741-3.572
		c0.596-1.787,0.298-3.574-0.595-5.062L54.983,146.296z M36.524,146.296l-14.887-17.269c0.893-2.084-0.298-4.168-2.084-5.062
		c-2.084-0.596-4.168,0.298-5.062,2.382c-0.893,2.084,0.298,4.168,2.084,5.062c0.595,0.298,1.191,0.298,1.786,0.298l12.803,14.887
		L13.896,166.84c-2.084-0.298-4.168,1.191-4.466,3.275c-0.297,2.084,1.191,4.168,3.275,4.466c2.084,0.298,4.168-1.19,4.466-3.274
		v-1.787L36.524,146.296z M84.459,144.212H72.252l-17.269-19.948c1.489-2.978,0.596-6.55-2.382-8.337
		c-2.977-1.489-6.55-0.595-8.336,2.382c-1.787,2.978,0,7.146,2.68,8.635c1.489,0.893,3.573,0.893,5.062,0.297l18.162,21.14h13.994
		c1.191,3.275,4.466,4.764,7.741,3.573c3.275-1.191,4.764-4.466,3.573-7.741c-1.191-3.275-4.466-4.764-7.741-3.573
		C86.544,141.234,85.055,142.723,84.459,144.212"/>
</g>
</svg>
