<?xml version="1.0" encoding="utf-8"?>
<!-- Generator: Adobe Illustrator 23.0.2, SVG Export Plug-In . SVG Version: 6.00 Build 0)  -->
<svg version="1.1" id="レイヤー_1" xmlns="http://www.w3.org/2000/svg" xmlns:xlink="http://www.w3.org/1999/xlink" x="0px"
	 y="0px" viewBox="0 0 100 100" style="enable-background:new 0 0 100 100;" xml:space="preserve">
<style type="text/css">
	.st0{fill:#595194;}
</style>
<path class="st0" d="M100,50c0,27.55-22.46,50-50,50C22.46,100,0,77.85,0,50C0,22.46,22.46,0,50,0C77.54,0,100,22.46,100,50z
	 M60.18,63.77h14.67c1.2,3.3,4.49,4.79,7.78,3.59c3.3-1.2,4.79-4.49,3.59-7.79c-1.2-3.3-4.49-4.79-7.78-3.59
	c-1.8,0.6-2.99,2.09-3.59,3.59H58.38L43.71,76.65c-2.99-1.2-6.59,0.3-7.79,3.59c-1.2,2.99,0.3,6.59,3.59,7.79
	c2.99,1.19,6.59-0.3,7.79-3.59c0.6-1.8,0.6-3.59-0.3-5.09C47.01,79.34,60.18,63.77,60.18,63.77z M55.09,47.31L31.73,20.06
	c1.5-2.99,0.3-6.59-2.7-8.09s-6.59-0.3-8.09,2.7c-1.5,2.99-0.3,6.59,2.7,8.08c1.5,0.9,3.59,0.9,5.09,0L49.7,47.01L26.04,74.85
	c-3.29-1.19-6.59,0.6-7.78,3.59c-1.2,3.29,0.6,6.59,3.59,7.78c3.29,1.2,6.59-0.59,7.78-3.59c0.6-1.8,0.3-3.59-0.6-5.09L55.09,47.31z
	 M36.52,47.31L21.55,29.94c0.9-2.09-0.3-4.19-2.09-5.09c-2.09-0.6-4.19,0.3-5.09,2.39c-0.9,2.09,0.3,4.19,2.09,5.09
	c0.6,0.3,1.2,0.3,1.8,0.3l12.88,14.97L13.77,67.97c-2.09-0.3-4.19,1.2-4.49,3.29c-0.3,2.1,1.2,4.2,3.29,4.5
	c2.09,0.3,4.19-1.19,4.49-3.29v-1.8L36.52,47.31z M84.73,45.21H72.46L55.09,25.15c1.5-2.99,0.6-6.59-2.39-8.38
	c-2.99-1.5-6.59-0.6-8.38,2.39c-1.8,3,0,7.19,2.7,8.68c1.5,0.9,3.59,0.9,5.09,0.3L70.36,49.4h14.07c1.2,3.29,4.49,4.79,7.78,3.59
	c3.29-1.2,4.79-4.49,3.59-7.78c-1.2-3.29-4.49-4.79-7.79-3.59C86.83,42.22,85.33,43.72,84.73,45.21"/>
</svg>
